<svg xmlns="http://www.w3.org/2000/svg" width="374.67" height="280" viewBox="0 0 281 210">
    <path class="Superior"
        d="M166.9 2.8 55.2 3l-1.7 3.8c-1 2-3.9 8.1-6.6 13.4-2.7 5.4-6 12.6-7.5 16-1.4 3.5-4.7 10.3-7.1 15.3C29.8 56.4 25.2 66.1 22 73c-3.2 6.9-9 19.2-13 27.4-3.9 8.1-6.8 15.2-6.3 15.6 1.1 1.1 6.3 1.3 29.6 1.1L52 117l1.2-2.8c.6-1.5 4.6-9.9 8.9-18.7 4.2-8.8 8.6-18.3 9.7-21 1.1-2.8 4.1-9.2 6.7-14.3l4.6-9.2h87.4c68.6 0 87.5-.3 88.2-1.3.5-.6 5.6-11 11.2-22.9 6.7-14.1 10-22.1 9.4-23-.6-1.1-21-1.3-112.4-1z" />
    <path class="Inferior"
        d="M92.2 68.2c-1.3 1.6-12.8 25.7-15.2 31.9-1 2.5-4.2 9-7 14.5-2.9 5.4-7 13.8-9.1 18.6-3.5 7.9-9 19.8-28.5 60.5-3.4 7.3-5.9 13.5-5.4 13.8.8.5 18.9.7 43.8.5h5.3l8.1-16.8c4.4-9.2 10.5-21.9 13.6-28.2 3-6.3 8.3-17.6 11.7-25 3.4-7.4 7.3-15.6 8.6-18.2l2.4-4.7 34-.1c18.7 0 35-.3 36.1-.6 1.6-.4 3.6-3.6 7.3-11.5 2.8-5.9 5.1-11.1 5.1-11.3 0-.3 2.2-5.1 5-10.7s5-11 5-12c0-1.8-2.1-1.9-59.9-1.9-46.7 0-60.1.3-60.9 1.2z" />

    <style>
        .Superior {
            fill: #2c6e2f;
        }

        .Inferior {
            fill: #2c496e;
        }

        @media (prefers-color-scheme: dark) {
            .Superior {
                fill: #93d396;
            }

            .Inferior {
                fill: #93afd3;
            }
        }
    </style>
</svg>